<!-- source-sha256: cf55bfedd1c6016cbdff05be37f47c5d4a396732c866bde25b088b5e38a5def1 -->
<svg aria-roledescription="flowchart-v2" role="graphics-document document" viewBox="0 0 2227.046142578125 1778.5059814453125" style="max-width: 2227.046142578125px;" class="flowchart" xmlns="http://www.w3.org/2000/svg" width="100%" id="shaping-breadboard"><style>#shaping-breadboard{font-family:Arial,sans-serif;font-size:15px;fill:#183c30;}#shaping-breadboard .error-icon{fill:#ffffff;}#shaping-breadboard .error-text{fill:#000000;stroke:#000000;}#shaping-breadboard .edge-thickness-normal{stroke-width:1px;}#shaping-breadboard .edge-thickness-thick{stroke-width:3.5px;}#shaping-breadboard .edge-pattern-solid{stroke-dasharray:0;}#shaping-breadboard .edge-thickness-invisible{stroke-width:0;fill:none;}#shaping-breadboard .edge-pattern-dashed{stroke-dasharray:3;}#shaping-breadboard .edge-pattern-dotted{stroke-dasharray:2;}#shaping-breadboard .marker{fill:#668477;stroke:#668477;}#shaping-breadboard .marker.cross{stroke:#668477;}#shaping-breadboard svg{font-family:Arial,sans-serif;font-size:15px;}#shaping-breadboard p{margin:0;}#shaping-breadboard .label{font-family:Arial,sans-serif;color:#183c30;}#shaping-breadboard .cluster-label text{fill:#000000;}#shaping-breadboard .cluster-label span{color:#000000;}#shaping-breadboard .cluster-label span p{background-color:transparent;}#shaping-breadboard .label text,#shaping-breadboard span{fill:#183c30;color:#183c30;}#shaping-breadboard .node rect,#shaping-breadboard .node circle,#shaping-breadboard .node ellipse,#shaping-breadboard .node polygon,#shaping-breadboard .node path{fill:#eef5f1;stroke:#8ba798;stroke-width:1px;}#shaping-breadboard .rough-node .label text,#shaping-breadboard .node .label text,#shaping-breadboard .image-shape .label,#shaping-breadboard .icon-shape .label{text-anchor:middle;}#shaping-breadboard .node .katex path{fill:#000;stroke:#000;stroke-width:1px;}#shaping-breadboard .rough-node .label,#shaping-breadboard .node .label,#shaping-breadboard .image-shape .label,#shaping-breadboard .icon-shape .label{text-align:center;}#shaping-breadboard .node.clickable{cursor:pointer;}#shaping-breadboard .root .anchor path{fill:#668477!important;stroke-width:0;stroke:#668477;}#shaping-breadboard .arrowheadPath{fill:#0b0b0b;}#shaping-breadboard .edgePath .path{stroke:#668477;stroke-width:2.0px;}#shaping-breadboard .flowchart-link{stroke:#668477;fill:none;}#shaping-breadboard .edgeLabel{background-color:#ffffff;text-align:center;}#shaping-breadboard .edgeLabel p{background-color:#ffffff;}#shaping-breadboard .edgeLabel rect{opacity:0.5;background-color:#ffffff;fill:#ffffff;}#shaping-breadboard .labelBkg{background-color:rgba(255, 255, 255, 0.5);}#shaping-breadboard .cluster rect{fill:#f8faf8;stroke:#cddad2;stroke-width:1px;}#shaping-breadboard .cluster text{fill:#000000;}#shaping-breadboard .cluster span{color:#000000;}#shaping-breadboard div.mermaidTooltip{position:absolute;text-align:center;max-width:200px;padding:2px;font-family:Arial,sans-serif;font-size:12px;background:#ffffff;border:1px solid hsl(0, 0%, 90%);border-radius:2px;pointer-events:none;z-index:100;}#shaping-breadboard .flowchartTitleText{text-anchor:middle;font-size:18px;fill:#183c30;}#shaping-breadboard rect.text{fill:none;stroke-width:0;}#shaping-breadboard .icon-shape,#shaping-breadboard .image-shape{background-color:#ffffff;text-align:center;}#shaping-breadboard .icon-shape p,#shaping-breadboard .image-shape p{background-color:#ffffff;padding:2px;}#shaping-breadboard .icon-shape rect,#shaping-breadboard .image-shape rect{opacity:0.5;background-color:#ffffff;fill:#ffffff;}#shaping-breadboard :root{--mermaid-font-family:"trebuchet ms",verdana,arial,sans-serif;}</style><g><marker orient="auto" markerHeight="8" markerWidth="8" markerUnits="userSpaceOnUse" refY="5" refX="5" viewBox="0 0 10 10" class="marker flowchart-v2" id="shaping-breadboard_flowchart-v2-pointEnd"><path style="stroke-width: 1; stroke-dasharray: 1, 0;" class="arrowMarkerPath" d="M 0 0 L 10 5 L 0 10 z"></path></marker><marker orient="auto" markerHeight="8" markerWidth="8" markerUnits="userSpaceOnUse" refY="5" refX="4.5" viewBox="0 0 10 10" class="marker flowchart-v2" id="shaping-breadboard_flowchart-v2-pointStart"><path style="stroke-width: 1; stroke-dasharray: 1, 0;" class="arrowMarkerPath" d="M 0 5 L 10 10 L 10 0 z"></path></marker><marker orient="auto" markerHeight="11" markerWidth="11" markerUnits="userSpaceOnUse" refY="5" refX="11" viewBox="0 0 10 10" class="marker flowchart-v2" id="shaping-breadboard_flowchart-v2-circleEnd"><circle style="stroke-width: 1; stroke-dasharray: 1, 0;" class="arrowMarkerPath" r="5" cy="5" cx="5"></circle></marker><marker orient="auto" markerHeight="11" markerWidth="11" markerUnits="userSpaceOnUse" refY="5" refX="-1" viewBox="0 0 10 10" class="marker flowchart-v2" id="shaping-breadboard_flowchart-v2-circleStart"><circle style="stroke-width: 1; stroke-dasharray: 1, 0;" class="arrowMarkerPath" r="5" cy="5" cx="5"></circle></marker><marker orient="auto" markerHeight="11" markerWidth="11" markerUnits="userSpaceOnUse" refY="5.2" refX="12" viewBox="0 0 11 11" class="marker cross flowchart-v2" id="shaping-breadboard_flowchart-v2-crossEnd"><path style="stroke-width: 2; stroke-dasharray: 1, 0;" class="arrowMarkerPath" d="M 1,1 l 9,9 M 10,1 l -9,9"></path></marker><marker orient="auto" markerHeight="11" markerWidth="11" markerUnits="userSpaceOnUse" refY="5.2" refX="-1" viewBox="0 0 11 11" class="marker cross flowchart-v2" id="shaping-breadboard_flowchart-v2-crossStart"><path style="stroke-width: 2; stroke-dasharray: 1, 0;" class="arrowMarkerPath" d="M 1,1 l 9,9 M 10,1 l -9,9"></path></marker><g class="root"><g class="clusters"><g data-look="classic" id="P6" class="cluster"><rect height="392.98414611816406" width="769.140625" y="128" x="8" style=""></rect><g transform="translate(316.397705078125, 128)" class="cluster-label"><g><rect style="stroke: none" class="background"></rect><text style="" y="-10.1"><tspan dy="1.1em" y="-0.1em" x="0" class="text-outer-tspan"><tspan font-weight="normal" class="text-inner-tspan" font-style="normal">P6:</tspan><tspan font-weight="normal" class="text-inner-tspan" font-style="normal"> Preparation</tspan><tspan font-weight="normal" class="text-inner-tspan" font-style="normal"> host</tspan></tspan></text></g></g></g><g data-look="classic" id="P5" class="cluster"><rect height="423.24390411376953" width="342.59326171875" y="391.94445037841797" x="797.140625" style=""></rect><g transform="translate(895.898193359375, 391.94445037841797)" class="cluster-label"><g><rect style="stroke: none" class="background"></rect><text style="" y="-10.1"><tspan dy="1.1em" y="-0.1em" x="0" class="text-outer-tspan"><tspan font-weight="normal" class="text-inner-tspan" font-style="normal">P5:</tspan><tspan font-weight="normal" class="text-inner-tspan" font-style="normal"> Offline</tspan><tspan font-weight="normal" class="text-inner-tspan" font-style="normal"> terminal</tspan></tspan></text></g></g></g><g data-look="classic" id="P4" class="cluster"><rect height="366.0039367675781" width="315" y="1404.5021133422852" x="1171.31591796875" style=""></rect><g transform="translate(1284.36279296875, 1404.5021133422852)" class="cluster-label"><g><rect style="stroke: none" class="background"></rect><text style="" y="-10.1"><tspan dy="1.1em" y="-0.1em" x="0" class="text-outer-tspan"><tspan font-weight="normal" class="text-inner-tspan" font-style="normal">P4:</tspan><tspan font-weight="normal" class="text-inner-tspan" font-style="normal"> Meeting</tspan></tspan></text></g></g></g><g data-look="classic" id="P3" class="cluster"><rect height="240" width="355" y="1119.5021133422852" x="1131.31591796875" style=""></rect><g transform="translate(1260.576416015625, 1119.5021133422852)" class="cluster-label"><g><rect style="stroke: none" class="background"></rect><text style="" y="-10.1"><tspan dy="1.1em" y="-0.1em" x="0" class="text-outer-tspan"><tspan font-weight="normal" class="text-inner-tspan" font-style="normal">P3:</tspan><tspan font-weight="normal" class="text-inner-tspan" font-style="normal"> Recorder</tspan></tspan></text></g></g></g><g data-look="classic" id="P2" class="cluster"><rect height="946.5021133422852" width="748.062255859375" y="128" x="1159.73388671875" style=""></rect><g transform="translate(1485.5657958984375, 128)" class="cluster-label"><g><rect style="stroke: none" class="background"></rect><text style="" y="-10.1"><tspan dy="1.1em" y="-0.1em" x="0" class="text-outer-tspan"><tspan font-weight="normal" class="text-inner-tspan" font-style="normal">P2:</tspan><tspan font-weight="normal" class="text-inner-tspan" font-style="normal"> Operator</tspan></tspan></text></g></g></g><g data-look="classic" id="P1" class="cluster"><rect height="1231.5021133422852" width="291.25" y="8" x="1927.796142578125" style=""></rect><g transform="translate(2028.354736328125, 8)" class="cluster-label"><g><rect style="stroke: none" class="background"></rect><text style="" y="-10.1"><tspan dy="1.1em" y="-0.1em" x="0" class="text-outer-tspan"><tspan font-weight="normal" class="text-inner-tspan" font-style="normal">P1:</tspan><tspan font-weight="normal" class="text-inner-tspan" font-style="normal"> Settings</tspan></tspan></text></g></g></g></g><g class="edgePaths"><path marker-end="url(#shaping-breadboard_flowchart-v2-pointEnd)" style="" class="edge-thickness-normal edge-pattern-solid edge-thickness-normal edge-pattern-solid flowchart-link" id="L_U1_N1_0" d="M2073.421,656.586L2073.421,663.02C2073.421,669.454,2073.421,682.321,2028.529,695.488C1983.637,708.656,1893.853,722.123,1848.96,728.856L1804.068,735.59"></path><path marker-end="url(#shaping-breadboard_flowchart-v2-pointEnd)" style="" class="edge-thickness-normal edge-pattern-solid edge-thickness-normal edge-pattern-solid flowchart-link" id="L_N1_S1_1" d="M1673.409,781.438L1673.409,787.063C1673.409,792.688,1673.409,803.938,1673.409,813.313C1673.409,822.688,1673.409,830.188,1673.409,837.022C1673.409,843.855,1673.409,850.022,1673.409,853.105L1673.409,856.188"></path><path marker-end="url(#shaping-breadboard_flowchart-v2-pointEnd)" style="" class="edge-thickness-normal edge-pattern-dotted edge-thickness-normal edge-pattern-solid flowchart-link" id="L_S3_N1_2" d="M1575.163,648.28L1591.538,656.098C1607.912,663.916,1640.661,679.552,1657.035,692.329C1673.409,705.105,1673.409,715.022,1673.409,719.98L1673.409,724.938"></path><path marker-end="url(#shaping-breadboard_flowchart-v2-pointEnd)" style="" class="edge-thickness-normal edge-pattern-solid edge-thickness-normal edge-pattern-solid flowchart-link" id="L_U3_N3_3" d="M2073.421,83L2073.421,86.75C2073.421,90.5,2073.421,98,2073.421,105.5C2073.421,113,2073.421,120.5,1988.92,130.958C1904.42,141.416,1735.418,154.832,1650.917,161.54L1566.417,168.248"></path><path marker-end="url(#shaping-breadboard_flowchart-v2-pointEnd)" style="" class="edge-thickness-normal edge-pattern-solid edge-thickness-normal edge-pattern-solid flowchart-link" id="L_N3_S2_4" d="M1433.241,203L1429.516,206.75C1425.792,210.5,1418.343,218,1414.619,224.833C1410.894,231.667,1410.894,237.833,1410.894,240.917L1410.894,244"></path><path marker-end="url(#shaping-breadboard_flowchart-v2-pointEnd)" style="" class="edge-thickness-normal edge-pattern-solid edge-thickness-normal edge-pattern-solid flowchart-link" id="L_N3_N5_5" d="M1562.429,192.001L1600.179,197.584C1637.929,203.167,1713.429,214.334,1751.179,230.079C1788.929,245.824,1788.929,266.148,1788.929,288.306C1788.929,310.463,1788.929,334.454,1788.929,352.032C1788.929,369.611,1788.929,380.778,1741.573,393.669C1694.217,406.56,1599.505,421.177,1552.148,428.485L1504.792,435.793"></path><path marker-end="url(#shaping-breadboard_flowchart-v2-pointEnd)" style="" class="edge-thickness-normal edge-pattern-dotted edge-thickness-normal edge-pattern-solid flowchart-link" id="L_S2_N5_6" d="M1434.82,324.137L1438.293,329.855C1441.765,335.573,1448.71,347.009,1452.182,358.31C1455.654,369.611,1455.654,380.778,1450.265,390.461C1444.876,400.144,1434.097,408.343,1428.708,412.443L1423.319,416.543"></path><path marker-end="url(#shaping-breadboard_flowchart-v2-pointEnd)" style="" class="edge-thickness-normal edge-pattern-solid edge-thickness-normal edge-pattern-solid flowchart-link" id="L_N5_S2_7" d="M1312.115,418.964L1305.063,414.461C1298.011,409.958,1283.907,400.951,1276.855,390.864C1269.803,380.778,1269.803,369.611,1281.214,356.116C1292.626,342.62,1315.448,326.796,1326.86,318.884L1338.271,310.972"></path><path marker-end="url(#shaping-breadboard_flowchart-v2-pointEnd)" style="" class="edge-thickness-normal edge-pattern-solid edge-thickness-normal edge-pattern-solid flowchart-link" id="L_N5_S3_8" d="M1427.905,493.964L1434.758,498.468C1441.611,502.971,1455.317,511.978,1462.17,522.064C1469.023,532.151,1469.023,543.317,1469.023,553.817C1469.023,564.317,1469.023,574.151,1469.023,579.067L1469.023,583.984"></path><path marker-end="url(#shaping-breadboard_flowchart-v2-pointEnd)" style="" class="edge-thickness-normal edge-pattern-dotted edge-thickness-normal edge-pattern-solid flowchart-link" id="L_S1_N2_9" d="M1726.12,913.603L1746.644,920.419C1767.167,927.236,1808.214,940.869,1813.036,953.093C1817.859,965.318,1786.456,976.134,1770.755,981.542L1755.054,986.95"></path><path marker-end="url(#shaping-breadboard_flowchart-v2-pointEnd)" style="" class="edge-thickness-normal edge-pattern-dotted edge-thickness-normal edge-pattern-solid flowchart-link" id="L_S2_N2_10" d="M1480.23,298.4L1538.402,308.408C1596.574,318.415,1712.917,338.43,1771.089,354.02C1829.261,369.611,1829.261,380.778,1829.261,397.114C1829.261,413.451,1829.261,434.958,1829.261,456.464C1829.261,477.971,1829.261,499.478,1829.261,515.814C1829.261,532.151,1829.261,543.317,1829.261,561.543C1829.261,579.768,1829.261,605.052,1829.261,628.503C1829.261,651.954,1829.261,673.571,1829.261,694.38C1829.261,715.188,1829.261,735.188,1829.261,755.188C1829.261,775.188,1829.261,795.188,1829.261,808.938C1829.261,822.688,1829.261,830.188,1829.261,843.673C1829.261,857.157,1829.261,876.626,1829.261,896.095C1829.261,915.564,1829.261,935.033,1815.426,950.151C1801.59,965.269,1773.92,976.035,1760.085,981.418L1746.249,986.802"></path><path marker-end="url(#shaping-breadboard_flowchart-v2-pointEnd)" style="" class="edge-thickness-normal edge-pattern-dotted edge-thickness-normal edge-pattern-solid flowchart-link" id="L_S3_N2_11" d="M1501.795,671.92L1504.697,675.798C1507.599,679.676,1513.403,687.432,1516.304,701.31C1519.206,715.188,1519.206,735.188,1519.206,755.188C1519.206,775.188,1519.206,795.188,1519.206,808.938C1519.206,822.688,1519.206,830.188,1519.206,843.673C1519.206,857.157,1519.206,876.626,1519.206,896.095C1519.206,915.564,1519.206,935.033,1533.195,950.153C1547.184,965.273,1575.162,976.044,1589.151,981.43L1603.14,986.815"></path><path marker-end="url(#shaping-breadboard_flowchart-v2-pointEnd)" style="" class="edge-thickness-normal edge-pattern-dotted edge-thickness-normal edge-pattern-solid flowchart-link" id="L_N2_U4_12" d="M1675.058,1040.752L1675.058,1046.377C1675.058,1052.002,1675.058,1063.252,1741.452,1072.627C1807.846,1082.002,1940.633,1089.502,2007.027,1097.002C2073.421,1104.502,2073.421,1112.002,2073.421,1120.71C2073.421,1129.419,2073.421,1139.335,2073.421,1144.294L2073.421,1149.252"></path><path marker-end="url(#shaping-breadboard_flowchart-v2-pointEnd)" style="" class="edge-thickness-normal edge-pattern-dotted edge-thickness-normal edge-pattern-solid flowchart-link" id="L_S1_N6_13" d="M1620.698,913.768L1600.45,920.557C1580.201,927.346,1539.704,940.924,1512.718,951.159C1485.733,961.395,1472.259,968.288,1465.522,971.734L1458.785,975.18"></path><path marker-end="url(#shaping-breadboard_flowchart-v2-pointEnd)" style="" class="edge-thickness-normal edge-pattern-dotted edge-thickness-normal edge-pattern-solid flowchart-link" id="L_S3_N6_14" d="M1367.243,661.417L1358.231,667.046C1349.219,672.674,1331.195,683.931,1322.183,699.56C1313.171,715.188,1313.171,735.188,1313.171,755.188C1313.171,775.188,1313.171,795.188,1313.171,808.938C1313.171,822.688,1313.171,830.188,1313.171,843.673C1313.171,857.157,1313.171,876.626,1313.171,896.095C1313.171,915.564,1313.171,935.033,1316.966,948.079C1320.76,961.125,1328.35,967.749,1332.144,971.06L1335.939,974.372"></path><path marker-end="url(#shaping-breadboard_flowchart-v2-pointEnd)" style="" class="edge-thickness-normal edge-pattern-solid edge-thickness-normal edge-pattern-solid flowchart-link" id="L_N6_N7_15" d="M1381.921,1052.002L1381.921,1055.752C1381.921,1059.502,1381.921,1067.002,1381.921,1074.502C1381.921,1082.002,1381.921,1089.502,1381.921,1097.002C1381.921,1104.502,1381.921,1112.002,1379.044,1119.003C1376.167,1126.004,1370.412,1132.505,1367.535,1135.756L1364.658,1139.007"></path><path marker-end="url(#shaping-breadboard_flowchart-v2-pointEnd)" style="" class="edge-thickness-normal edge-pattern-solid edge-thickness-normal edge-pattern-solid flowchart-link" id="L_N7_N8_16" d="M1328.816,1217.002L1328.816,1220.752C1328.816,1224.502,1328.816,1232.002,1328.816,1239.502C1328.816,1247.002,1328.816,1254.502,1328.816,1261.335C1328.816,1268.169,1328.816,1274.335,1328.816,1277.419L1328.816,1280.502"></path><path marker-end="url(#shaping-breadboard_flowchart-v2-pointEnd)" style="" class="edge-thickness-normal edge-pattern-solid edge-thickness-normal edge-pattern-solid flowchart-link" id="L_N8_S4_17" d="M1328.816,1337.002L1328.816,1340.752C1328.816,1344.502,1328.816,1352.002,1328.816,1359.502C1328.816,1367.002,1328.816,1374.502,1328.816,1382.002C1328.816,1389.502,1328.816,1397.002,1328.816,1403.835C1328.816,1410.669,1328.816,1416.835,1328.816,1419.919L1328.816,1423.002"></path><path marker-end="url(#shaping-breadboard_flowchart-v2-pointEnd)" style="" class="edge-thickness-normal edge-pattern-dotted edge-thickness-normal edge-pattern-solid flowchart-link" id="L_S3_N7_18" d="M1362.882,656.11L1336.061,662.623C1309.239,669.136,1255.597,682.162,1228.775,698.675C1201.954,715.188,1201.954,735.188,1201.954,755.188C1201.954,775.188,1201.954,795.188,1201.954,808.938C1201.954,822.688,1201.954,830.188,1201.954,843.673C1201.954,857.157,1201.954,876.626,1201.954,896.095C1201.954,915.564,1201.954,935.033,1201.954,954.768C1201.954,974.502,1201.954,994.502,1201.954,1014.502C1201.954,1034.502,1201.954,1054.502,1201.954,1068.252C1201.954,1082.002,1201.954,1089.502,1201.954,1097.002C1201.954,1104.502,1201.954,1112.002,1209.28,1119.217C1216.606,1126.432,1231.259,1133.362,1238.585,1136.827L1245.911,1140.292"></path><path marker-end="url(#shaping-breadboard_flowchart-v2-pointEnd)" style="" class="edge-thickness-normal edge-pattern-dotted edge-thickness-normal edge-pattern-solid flowchart-link" id="L_S4_N9_19" d="M1328.816,1508.006L1328.816,1511.756C1328.816,1515.506,1328.816,1523.006,1328.816,1529.839C1328.816,1536.673,1328.816,1542.839,1328.816,1545.923L1328.816,1549.006"></path><path marker-end="url(#shaping-breadboard_flowchart-v2-pointEnd)" style="" class="edge-thickness-normal edge-pattern-dotted edge-thickness-normal edge-pattern-solid flowchart-link" id="L_N9_U6_20" d="M1328.816,1628.006L1328.816,1631.756C1328.816,1635.506,1328.816,1643.006,1328.816,1649.839C1328.816,1656.673,1328.816,1662.839,1328.816,1665.923L1328.816,1669.006"></path><path marker-end="url(#shaping-breadboard_flowchart-v2-pointEnd)" style="" class="edge-thickness-normal edge-pattern-solid edge-thickness-normal edge-pattern-solid flowchart-link" id="L_U8_N11_21" d="M982.234,482.714L982.234,489.093C982.234,495.471,982.234,508.228,982.234,520.189C982.234,532.151,982.234,543.317,979.837,556.532C977.439,569.746,972.644,585.008,970.247,592.639L967.85,600.27"></path><path marker-end="url(#shaping-breadboard_flowchart-v2-pointEnd)" style="" class="edge-thickness-normal edge-pattern-solid edge-thickness-normal edge-pattern-solid flowchart-link" id="L_N11_N5_22" d="M1044.863,604.086L1072.092,595.819C1099.321,587.552,1153.779,571.018,1181.007,557.168C1208.236,543.317,1208.236,532.151,1218.966,522.31C1229.695,512.469,1251.155,503.954,1261.884,499.697L1272.614,495.44"></path><path marker-end="url(#shaping-breadboard_flowchart-v2-pointEnd)" style="" class="edge-thickness-normal edge-pattern-dotted edge-thickness-normal edge-pattern-solid flowchart-link" id="L_N5_N11_23" d="M1328.873,493.964L1323.833,498.468C1318.793,502.971,1308.714,511.978,1303.674,522.064C1298.635,532.151,1298.635,543.317,1261.808,557.111C1224.982,570.905,1151.329,587.325,1114.502,595.535L1077.675,603.746"></path><path marker-end="url(#shaping-breadboard_flowchart-v2-pointEnd)" style="" class="edge-thickness-normal edge-pattern-dotted edge-thickness-normal edge-pattern-solid flowchart-link" id="L_N11_U9_24" d="M958.404,656.586L958.404,663.02C958.404,669.454,958.404,682.321,958.404,691.838C958.404,701.355,958.404,707.522,958.404,710.605L958.404,713.688"></path><path marker-end="url(#shaping-breadboard_flowchart-v2-pointEnd)" style="" class="edge-thickness-normal edge-pattern-solid edge-thickness-normal edge-pattern-solid flowchart-link" id="L_U10_N12_25" d="M262.43,203L262.43,206.75C262.43,210.5,262.43,218,262.43,224.995C262.43,231.991,262.43,238.481,262.43,241.727L262.43,244.972"></path><path marker-end="url(#shaping-breadboard_flowchart-v2-pointEnd)" style="" class="edge-thickness-normal edge-pattern-solid edge-thickness-normal edge-pattern-solid flowchart-link" id="L_N12_S7_26" d="M244.961,323.972L242.284,329.718C239.608,335.463,234.255,346.954,231.579,358.282C228.902,369.611,228.902,380.778,223.11,390.682C217.317,400.587,205.731,409.23,199.939,413.551L194.146,417.872"></path><path marker-end="url(#shaping-breadboard_flowchart-v2-pointEnd)" style="" class="edge-thickness-normal edge-pattern-dotted edge-thickness-normal edge-pattern-solid flowchart-link" id="L_S7_N12_27" d="M94.534,416.497L91.559,412.405C88.584,408.313,82.634,400.129,79.659,390.453C76.684,380.778,76.684,369.611,90.89,358.523C105.096,347.435,133.508,336.426,147.714,330.922L161.92,325.417"></path><path marker-end="url(#shaping-breadboard_flowchart-v2-pointEnd)" style="" class="edge-thickness-normal edge-pattern-solid edge-thickness-normal edge-pattern-solid flowchart-link" id="L_N12_S6_28" d="M309.327,323.972L316.512,329.718C323.697,335.463,338.067,346.954,345.252,358.282C352.438,369.611,352.438,380.778,352.438,389.444C352.438,398.111,352.438,404.278,352.438,407.361L352.438,410.444"></path><path marker-end="url(#shaping-breadboard_flowchart-v2-pointEnd)" style="" class="edge-thickness-normal edge-pattern-dotted edge-thickness-normal edge-pattern-solid flowchart-link" id="L_N12_U11_29" d="M392.43,312.665L430.298,320.295C468.167,327.925,543.904,343.185,581.772,356.398C619.641,369.611,619.641,380.778,619.641,390.198C619.641,399.618,619.641,407.291,619.641,411.128L619.641,414.964"></path><path marker-end="url(#shaping-breadboard_flowchart-v2-pointEnd)" style="" class="edge-thickness-normal edge-pattern-dotted edge-thickness-normal edge-pattern-solid flowchart-link" id="L_S6_N11_30" d="M352.438,498.484L352.438,502.234C352.438,505.984,352.438,513.484,443.651,522.817C534.865,532.151,717.293,543.317,814.495,556.641C911.696,569.964,923.672,585.443,929.66,593.183L935.648,600.923"></path></g><g class="edgeLabels"><g><rect style="stroke: none" class="background"></rect></g><g><rect style="stroke: none" class="background"></rect></g><g><rect style="stroke: none" class="background"></rect></g><g><rect style="stroke: none" class="background"></rect></g><g><rect style="stroke: none" class="background"></rect></g><g><rect style="stroke: none" class="background"></rect></g><g><rect style="stroke: none" class="background"></rect></g><g><rect style="stroke: none" class="background"></rect></g><g><rect style="stroke: none" class="background"></rect></g><g><rect style="stroke: none" class="background"></rect></g><g><rect style="stroke: none" class="background"></rect></g><g><rect style="stroke: none" class="background"></rect></g><g><rect style="stroke: none" class="background"></rect></g><g><rect style="stroke: none" class="background"></rect></g><g><rect style="stroke: none" class="background"></rect></g><g><rect style="stroke: none" class="background"></rect></g><g><rect style="stroke: none" class="background"></rect></g><g><rect style="stroke: none" class="background"></rect></g><g><rect style="stroke: none" class="background"></rect></g><g><rect style="stroke: none" class="background"></rect></g><g><rect style="stroke: none" class="background"></rect></g><g><rect style="stroke: none" class="background"></rect></g><g><rect style="stroke: none" class="background"></rect></g><g><rect style="stroke: none" class="background"></rect></g><g><rect style="stroke: none" class="background"></rect></g><g><rect style="stroke: none" class="background"></rect></g><g><rect style="stroke: none" class="background"></rect></g><g><rect style="stroke: none" class="background"></rect></g><g class="edgeLabel"><g transform="translate(0, 0)" class="label"><text y="-10.1"><tspan dy="1.1em" y="-0.1em" x="0" class="text-outer-tspan"></tspan></text></g></g><g class="edgeLabel"><g transform="translate(0, 0)" class="label"><text y="-10.1"><tspan dy="1.1em" y="-0.1em" x="0" class="text-outer-tspan"></tspan></text></g></g><g class="edgeLabel"><g transform="translate(0, 0)" class="label"><text y="-10.1"><tspan dy="1.1em" y="-0.1em" x="0" class="text-outer-tspan"></tspan></text></g></g><g class="edgeLabel"><g transform="translate(0, 0)" class="label"><text y="-10.1"><tspan dy="1.1em" y="-0.1em" x="0" class="text-outer-tspan"></tspan></text></g></g><g class="edgeLabel"><g transform="translate(0, 0)" class="label"><text y="-10.1"><tspan dy="1.1em" y="-0.1em" x="0" class="text-outer-tspan"></tspan></text></g></g><g class="edgeLabel"><g transform="translate(0, 0)" class="label"><text y="-10.1"><tspan dy="1.1em" y="-0.1em" x="0" class="text-outer-tspan"></tspan></text></g></g><g class="edgeLabel"><g transform="translate(0, 0)" class="label"><text y="-10.1"><tspan dy="1.1em" y="-0.1em" x="0" class="text-outer-tspan"></tspan></text></g></g><g transform="translate(1269.8028564453125, 358.44445037841797)" class="edgeLabel"><g transform="translate(-69.520751953125, -11)" class="label"><g><rect height="22" width="139.04150390625" y="-1" x="-2" style="" class="background"></rect><text style="" y="-10.1"><tspan dy="1.1em" y="-0.1em" x="0" class="text-outer-tspan"><tspan font-weight="normal" class="text-inner-tspan" font-style="normal">managed</tspan><tspan font-weight="normal" class="text-inner-tspan" font-style="normal"> job</tspan><tspan font-weight="normal" class="text-inner-tspan" font-style="normal"> only</tspan></tspan></text></g></g></g><g class="edgeLabel"><g transform="translate(0, 0)" class="label"><text y="-10.1"><tspan dy="1.1em" y="-0.1em" x="0" class="text-outer-tspan"></tspan></text></g></g><g class="edgeLabel"><g transform="translate(0, 0)" class="label"><text y="-10.1"><tspan dy="1.1em" y="-0.1em" x="0" class="text-outer-tspan"></tspan></text></g></g><g class="edgeLabel"><g transform="translate(0, 0)" class="label"><text y="-10.1"><tspan dy="1.1em" y="-0.1em" x="0" class="text-outer-tspan"></tspan></text></g></g><g class="edgeLabel"><g transform="translate(0, 0)" class="label"><text y="-10.1"><tspan dy="1.1em" y="-0.1em" x="0" class="text-outer-tspan"></tspan></text></g></g><g class="edgeLabel"><g transform="translate(0, 0)" class="label"><text y="-10.1"><tspan dy="1.1em" y="-0.1em" x="0" class="text-outer-tspan"></tspan></text></g></g><g class="edgeLabel"><g transform="translate(0, 0)" class="label"><text y="-10.1"><tspan dy="1.1em" y="-0.1em" x="0" class="text-outer-tspan"></tspan></text></g></g><g class="edgeLabel"><g transform="translate(0, 0)" class="label"><text y="-10.1"><tspan dy="1.1em" y="-0.1em" x="0" class="text-outer-tspan"></tspan></text></g></g><g class="edgeLabel"><g transform="translate(0, 0)" class="label"><text y="-10.1"><tspan dy="1.1em" y="-0.1em" x="0" class="text-outer-tspan"></tspan></text></g></g><g class="edgeLabel"><g transform="translate(0, 0)" class="label"><text y="-10.1"><tspan dy="1.1em" y="-0.1em" x="0" class="text-outer-tspan"></tspan></text></g></g><g class="edgeLabel"><g transform="translate(0, 0)" class="label"><text y="-10.1"><tspan dy="1.1em" y="-0.1em" x="0" class="text-outer-tspan"></tspan></text></g></g><g class="edgeLabel"><g transform="translate(0, 0)" class="label"><text y="-10.1"><tspan dy="1.1em" y="-0.1em" x="0" class="text-outer-tspan"></tspan></text></g></g><g class="edgeLabel"><g transform="translate(0, 0)" class="label"><text y="-10.1"><tspan dy="1.1em" y="-0.1em" x="0" class="text-outer-tspan"></tspan></text></g></g><g class="edgeLabel"><g transform="translate(0, 0)" class="label"><text y="-10.1"><tspan dy="1.1em" y="-0.1em" x="0" class="text-outer-tspan"></tspan></text></g></g><g class="edgeLabel"><g transform="translate(0, 0)" class="label"><text y="-10.1"><tspan dy="1.1em" y="-0.1em" x="0" class="text-outer-tspan"></tspan></text></g></g><g class="edgeLabel"><g transform="translate(0, 0)" class="label"><text y="-10.1"><tspan dy="1.1em" y="-0.1em" x="0" class="text-outer-tspan"></tspan></text></g></g><g transform="translate(1298.634765625, 554.4841461181641)" class="edgeLabel"><g transform="translate(-64.934814453125, -11)" class="label"><g><rect height="22" width="129.86962890625" y="-1" x="-2" style="" class="background"></rect><text style="" y="-10.1"><tspan dy="1.1em" y="-0.1em" x="0" class="text-outer-tspan"><tspan font-weight="normal" class="text-inner-tspan" font-style="normal">local</tspan><tspan font-weight="normal" class="text-inner-tspan" font-style="normal"> import</tspan><tspan font-weight="normal" class="text-inner-tspan" font-style="normal"> only</tspan></tspan></text></g></g></g><g class="edgeLabel"><g transform="translate(0, 0)" class="label"><text y="-10.1"><tspan dy="1.1em" y="-0.1em" x="0" class="text-outer-tspan"></tspan></text></g></g><g class="edgeLabel"><g transform="translate(0, 0)" class="label"><text y="-10.1"><tspan dy="1.1em" y="-0.1em" x="0" class="text-outer-tspan"></tspan></text></g></g><g class="edgeLabel"><g transform="translate(0, 0)" class="label"><text y="-10.1"><tspan dy="1.1em" y="-0.1em" x="0" class="text-outer-tspan"></tspan></text></g></g><g class="edgeLabel"><g transform="translate(0, 0)" class="label"><text y="-10.1"><tspan dy="1.1em" y="-0.1em" x="0" class="text-outer-tspan"></tspan></text></g></g><g class="edgeLabel"><g transform="translate(0, 0)" class="label"><text y="-10.1"><tspan dy="1.1em" y="-0.1em" x="0" class="text-outer-tspan"></tspan></text></g></g><g class="edgeLabel"><g transform="translate(0, 0)" class="label"><text y="-10.1"><tspan dy="1.1em" y="-0.1em" x="0" class="text-outer-tspan"></tspan></text></g></g><g transform="translate(899.720458984375, 554.4841461181641)" class="edgeLabel"><g transform="translate(-62.513427734375, -11)" class="label"><g><rect height="22" width="125.02685546875" y="-1" x="-2" style="" class="background"></rect><text style="" y="-10.1"><tspan dy="1.1em" y="-0.1em" x="0" class="text-outer-tspan"><tspan font-weight="normal" class="text-inner-tspan" font-style="normal">manual</tspan><tspan font-weight="normal" class="text-inner-tspan" font-style="normal"> transfer</tspan></tspan></text></g></g></g></g><g class="nodes"><g transform="translate(2073.421142578125, 630.3362503051758)" id="flowchart-U1-0" class="node default"><rect height="52.5" width="220.78125" y="-26.25" x="-110.390625" style="" class="basic label-container"></rect><g transform="translate(-80.390625, -11.25)" style="" class="label"><rect></rect><foreignObject height="22.5" width="160.78125"><div style="display: table-cell; white-space: nowrap; line-height: 1.5; max-width: 200px; text-align: center;" xmlns="http://www.w3.org/1999/xhtml"><span class="nodeLabel"><p>U1: Off / Enable / Use</p></span></div></foreignObject></g></g><g transform="translate(2073.421142578125, 56.75)" id="flowchart-U3-1" class="node default"><rect height="52.5" width="164.90625" y="-26.25" x="-82.453125" style="" class="basic label-container"></rect><g transform="translate(-52.453125, -11.25)" style="" class="label"><rect></rect><foreignObject height="22.5" width="104.90625"><div style="display: table-cell; white-space: nowrap; line-height: 1.5; max-width: 200px; text-align: center;" xmlns="http://www.w3.org/1999/xhtml"><span class="nodeLabel"><p>U3: Download</p></span></div></foreignObject></g></g><g transform="translate(2073.421142578125, 1179.5021133422852)" id="flowchart-U4-2" class="node default"><rect height="52.5" width="236.25" y="-26.25" x="-118.125" style="" class="basic label-container"></rect><g transform="translate(-88.125, -11.25)" style="" class="label"><rect></rect><foreignObject height="22.5" width="176.25"><div style="display: table-cell; white-space: nowrap; line-height: 1.5; max-width: 200px; text-align: center;" xmlns="http://www.w3.org/1999/xhtml"><span class="nodeLabel"><p>U4: Progress and errors</p></span></div></foreignObject></g></g><g transform="translate(1673.409423828125, 755.1883544921875)" id="flowchart-N1-3" class="node default"><rect height="52.5" width="253.40625" y="-26.25" x="-126.703125" style="" class="basic label-container"></rect><g transform="translate(-96.703125, -11.25)" style="" class="label"><rect></rect><foreignObject height="22.5" width="193.40625"><div style="display: table-cell; white-space: nowrap; line-height: 1.5; max-width: 200px; text-align: center;" xmlns="http://www.w3.org/1999/xhtml"><span class="nodeLabel"><p>N1: Save prepared choice</p></span></div></foreignObject></g></g><g transform="translate(1673.409423828125, 896.0952339172363)" id="flowchart-S1-4" class="node default"><path transform="translate(-52.7109375, -35.90687936529464)" style="" class="basic label-container" d="M0,11.437919576863091 a52.7109375,11.437919576863091 0,0,0 105.421875,0 a52.7109375,11.437919576863091 0,0,0 -105.421875,0 l0,48.937919576863095 a52.7109375,11.437919576863091 0,0,0 105.421875,0 l0,-48.937919576863095"></path><g transform="translate(-45.2109375, -1.25)" style="" class="label"><rect></rect><foreignObject height="22.5" width="90.421875"><div style="display: table-cell; white-space: nowrap; line-height: 1.5; max-width: 200px; text-align: center;" xmlns="http://www.w3.org/1999/xhtml"><span class="nodeLabel"><p>S1: Settings</p></span></div></foreignObject></g></g><g transform="translate(1459.31201171875, 176.75)" id="flowchart-N3-5" class="node default"><rect height="52.5" width="206.234375" y="-26.25" x="-103.1171875" style="" class="basic label-container"></rect><g transform="translate(-73.1171875, -11.25)" style="" class="label"><rect></rect><foreignObject height="22.5" width="146.234375"><div style="display: table-cell; white-space: nowrap; line-height: 1.5; max-width: 200px; text-align: center;" xmlns="http://www.w3.org/1999/xhtml"><span class="nodeLabel"><p>N3: Enqueue install</p></span></div></foreignObject></g></g><g transform="translate(1410.89404296875, 286.472225189209)" id="flowchart-S2-6" class="node default"><path transform="translate(-69.3359375, -38.47222222222223)" style="" class="basic label-container" d="M0,13.148148148148149 a69.3359375,13.148148148148149 0,0,0 138.671875,0 a69.3359375,13.148148148148149 0,0,0 -138.671875,0 l0,50.64814814814815 a69.3359375,13.148148148148149 0,0,0 138.671875,0 l0,-50.64814814814815"></path><g transform="translate(-61.8359375, -1.25)" style="" class="label"><rect></rect><foreignObject height="22.5" width="123.671875"><div style="display: table-cell; white-space: nowrap; line-height: 1.5; max-width: 200px; text-align: center;" xmlns="http://www.w3.org/1999/xhtml"><span class="nodeLabel"><p>S2: Durable jobs</p></span></div></foreignObject></g></g><g transform="translate(1370.839111328125, 456.464298248291)" id="flowchart-N5-7" class="node default"><rect height="75" width="260" y="-37.5" x="-130" style="" class="basic label-container"></rect><g transform="translate(-100, -22.5)" style="" class="label"><rect></rect><foreignObject height="45" width="200"><div style="display: table; white-space: break-spaces; line-height: 1.5; max-width: 200px; text-align: center; width: 200px;" xmlns="http://www.w3.org/1999/xhtml"><span class="nodeLabel"><p>N5: Shared installer and probe</p></span></div></foreignObject></g></g><g transform="translate(1469.022705078125, 630.3362503051758)" id="flowchart-S3-8" class="node default"><path transform="translate(-106.140625, -42.35210321504679)" style="" class="basic label-container" d="M0,15.734735476697859 a106.140625,15.734735476697859 0,0,0 212.28125,0 a106.140625,15.734735476697859 0,0,0 -212.28125,0 l0,53.23473547669786 a106.140625,15.734735476697859 0,0,0 212.28125,0 l0,-53.23473547669786"></path><g transform="translate(-98.640625, -1.25)" style="" class="label"><rect></rect><foreignObject height="22.5" width="197.28125"><div style="display: table-cell; white-space: nowrap; line-height: 1.5; max-width: 200px; text-align: center;" xmlns="http://www.w3.org/1999/xhtml"><span class="nodeLabel"><p>S3: Persistent model store</p></span></div></foreignObject></g></g><g transform="translate(1675.057861328125, 1014.5021133422852)" id="flowchart-N2-9" class="node default"><rect height="52.5" width="179.140625" y="-26.25" x="-89.5703125" style="" class="basic label-container"></rect><g transform="translate(-59.5703125, -11.25)" style="" class="label"><rect></rect><foreignObject height="22.5" width="119.140625"><div style="display: table-cell; white-space: nowrap; line-height: 1.5; max-width: 200px; text-align: center;" xmlns="http://www.w3.org/1999/xhtml"><span class="nodeLabel"><p>N2: Read status</p></span></div></foreignObject></g></g><g transform="translate(1381.921142578125, 1014.5021133422852)" id="flowchart-N6-10" class="node default"><rect height="75" width="260" y="-37.5" x="-130" style="" class="basic label-container"></rect><g transform="translate(-100, -22.5)" style="" class="label"><rect></rect><foreignObject height="45" width="200"><div style="display: table; white-space: break-spaces; line-height: 1.5; max-width: 200px; text-align: center; width: 200px;" xmlns="http://www.w3.org/1999/xhtml"><span class="nodeLabel"><p>N6: Admit build with snapshot</p></span></div></foreignObject></g></g><g transform="translate(1328.81591796875, 1179.5021133422852)" id="flowchart-N7-11" class="node default"><rect height="75" width="260" y="-37.5" x="-130" style="" class="basic label-container"></rect><g transform="translate(-100, -22.5)" style="" class="label"><rect></rect><foreignObject height="45" width="200"><div style="display: table; white-space: break-spaces; line-height: 1.5; max-width: 200px; text-align: center; width: 200px;" xmlns="http://www.w3.org/1999/xhtml"><span class="nodeLabel"><p>N7: Audio plus optional STT</p></span></div></foreignObject></g></g><g transform="translate(1328.81591796875, 1310.7521133422852)" id="flowchart-N8-12" class="node default"><rect height="52.5" width="217.046875" y="-26.25" x="-108.5234375" style="" class="basic label-container"></rect><g transform="translate(-78.5234375, -11.25)" style="" class="label"><rect></rect><foreignObject height="22.5" width="157.046875"><div style="display: table-cell; white-space: nowrap; line-height: 1.5; max-width: 200px; text-align: center;" xmlns="http://www.w3.org/1999/xhtml"><span class="nodeLabel"><p>N8: Pack and publish</p></span></div></foreignObject></g></g><g transform="translate(1328.81591796875, 1467.5040817260742)" id="flowchart-S4-13" class="node default"><path transform="translate(-86.328125, -40.50196850393701)" style="" class="basic label-container" d="M0,14.501312335958005 a86.328125,14.501312335958005 0,0,0 172.65625,0 a86.328125,14.501312335958005 0,0,0 -172.65625,0 l0,52.001312335958005 a86.328125,14.501312335958005 0,0,0 172.65625,0 l0,-52.001312335958005"></path><g transform="translate(-78.828125, -1.25)" style="" class="label"><rect></rect><foreignObject height="22.5" width="157.65625"><div style="display: table-cell; white-space: nowrap; line-height: 1.5; max-width: 200px; text-align: center;" xmlns="http://www.w3.org/1999/xhtml"><span class="nodeLabel"><p>S4: Portable meeting</p></span></div></foreignObject></g></g><g transform="translate(1328.81591796875, 1590.5060501098633)" id="flowchart-N9-14" class="node default"><rect height="75" width="260" y="-37.5" x="-130" style="" class="basic label-container"></rect><g transform="translate(-100, -22.5)" style="" class="label"><rect></rect><foreignObject height="45" width="200"><div style="display: table; white-space: break-spaces; line-height: 1.5; max-width: 200px; text-align: center; width: 200px;" xmlns="http://www.w3.org/1999/xhtml"><span class="nodeLabel"><p>N9: Load media and processing status</p></span></div></foreignObject></g></g><g transform="translate(1328.81591796875, 1710.5060501098633)" id="flowchart-U6-15" class="node default"><rect height="75" width="260" y="-37.5" x="-130" style="" class="basic label-container"></rect><g transform="translate(-100, -22.5)" style="" class="label"><rect></rect><foreignObject height="45" width="200"><div style="display: table; white-space: break-spaces; line-height: 1.5; max-width: 200px; text-align: center; width: 200px;" xmlns="http://www.w3.org/1999/xhtml"><span class="nodeLabel"><p>U6: Audio and transcription state</p></span></div></foreignObject></g></g><g transform="translate(982.23388671875, 456.464298248291)" id="flowchart-U8-16" class="node default"><rect height="52.5" width="199.171875" y="-26.25" x="-99.5859375" style="" class="basic label-container"></rect><g transform="translate(-69.5859375, -11.25)" style="" class="label"><rect></rect><foreignObject height="22.5" width="139.171875"><div style="display: table-cell; white-space: nowrap; line-height: 1.5; max-width: 200px; text-align: center;" xmlns="http://www.w3.org/1999/xhtml"><span class="nodeLabel"><p>U8: models import</p></span></div></foreignObject></g></g><g transform="translate(958.404052734375, 630.3362503051758)" id="flowchart-N11-17" class="node default"><rect height="52.5" width="230.734375" y="-26.25" x="-115.3671875" style="" class="basic label-container"></rect><g transform="translate(-85.3671875, -11.25)" style="" class="label"><rect></rect><foreignObject height="22.5" width="170.734375"><div style="display: table-cell; white-space: nowrap; line-height: 1.5; max-width: 200px; text-align: center;" xmlns="http://www.w3.org/1999/xhtml"><span class="nodeLabel"><p>N11: Local-only import</p></span></div></foreignObject></g></g><g transform="translate(958.404052734375, 755.1883544921875)" id="flowchart-U9-18" class="node default"><rect height="75" width="260" y="-37.5" x="-130" style="" class="basic label-container"></rect><g transform="translate(-100, -22.5)" style="" class="label"><rect></rect><foreignObject height="45" width="200"><div style="display: table; white-space: break-spaces; line-height: 1.5; max-width: 200px; text-align: center; width: 200px;" xmlns="http://www.w3.org/1999/xhtml"><span class="nodeLabel"><p>U9: Import progress and readiness</p></span></div></foreignObject></g></g><g transform="translate(262.4298095703125, 176.75)" id="flowchart-U10-19" class="node default"><rect height="52.5" width="194.828125" y="-26.25" x="-97.4140625" style="" class="basic label-container"></rect><g transform="translate(-67.4140625, -11.25)" style="" class="label"><rect></rect><foreignObject height="22.5" width="134.828125"><div style="display: table-cell; white-space: nowrap; line-height: 1.5; max-width: 200px; text-align: center;" xmlns="http://www.w3.org/1999/xhtml"><span class="nodeLabel"><p>U10: models pack</p></span></div></foreignObject></g></g><g transform="translate(262.4298095703125, 286.472225189209)" id="flowchart-N12-20" class="node default"><rect height="75" width="260" y="-37.5" x="-130" style="" class="basic label-container"></rect><g transform="translate(-100, -22.5)" style="" class="label"><rect></rect><foreignObject height="45" width="200"><div style="display: table; white-space: break-spaces; line-height: 1.5; max-width: 200px; text-align: center; width: 200px;" xmlns="http://www.w3.org/1999/xhtml"><span class="nodeLabel"><p>N12: Acquire, verify, and pack</p></span></div></foreignObject></g></g><g transform="translate(125.3671875, 456.464298248291)" id="flowchart-S7-21" class="node default"><path transform="translate(-89.8671875, -40.867751115213046)" style="" class="basic label-container" d="M0,14.74516741014203 a89.8671875,14.74516741014203 0,0,0 179.734375,0 a89.8671875,14.74516741014203 0,0,0 -179.734375,0 l0,52.24516741014203 a89.8671875,14.74516741014203 0,0,0 179.734375,0 l0,-52.24516741014203"></path><g transform="translate(-82.3671875, -1.25)" style="" class="label"><rect></rect><foreignObject height="22.5" width="164.734375"><div style="display: table-cell; white-space: nowrap; line-height: 1.5; max-width: 200px; text-align: center;" xmlns="http://www.w3.org/1999/xhtml"><span class="nodeLabel"><p>S7: Preparation cache</p></span></div></foreignObject></g></g><g transform="translate(352.4375, 456.464298248291)" id="flowchart-S6-22" class="node default"><path transform="translate(-102.203125, -42.0198510577744)" style="" class="basic label-container" d="M0,15.51323403851627 a102.203125,15.51323403851627 0,0,0 204.40625,0 a102.203125,15.51323403851627 0,0,0 -204.40625,0 l0,53.01323403851627 a102.203125,15.51323403851627 0,0,0 204.40625,0 l0,-53.01323403851627"></path><g transform="translate(-94.703125, -1.25)" style="" class="label"><rect></rect><foreignObject height="22.5" width="189.40625"><div style="display: table-cell; white-space: nowrap; line-height: 1.5; max-width: 200px; text-align: center;" xmlns="http://www.w3.org/1999/xhtml"><span class="nodeLabel"><p>S6: Transferable package</p></span></div></foreignObject></g></g><g transform="translate(619.640625, 456.464298248291)" id="flowchart-U11-23" class="node default"><rect height="75" width="260" y="-37.5" x="-130" style="" class="basic label-container"></rect><g transform="translate(-100, -22.5)" style="" class="label"><rect></rect><foreignObject height="45" width="200"><div style="display: table; white-space: break-spaces; line-height: 1.5; max-width: 200px; text-align: center; width: 200px;" xmlns="http://www.w3.org/1999/xhtml"><span class="nodeLabel"><p>U11: Pack progress and result</p></span></div></foreignObject></g></g></g></g></g></svg>